<svg xmlns="http://www.w3.org/2000/svg" version="1.1" xmlns:xlink="http://www.w3.org/1999/xlink" xmlns:svgjs="http://svgjs.dev/svgjs" width="1440" height="545" preserveAspectRatio="none" viewBox="0 0 1440 545">
    <g mask="url(&quot;#SvgjsMask1664&quot;)" fill="none">
        <rect width="1440" height="545" x="0" y="0" fill="rgba(84, 197, 187, 1)"></rect>
        <path d="M1560 545L0 545 L0 504.11Q26.04 410.15, 120 436.2Q186.06 382.25, 240 448.31Q293.88 430.19, 312 484.06Q362.31 414.38, 432 464.69Q458.8 419.49, 504 446.29Q565.37 435.65, 576 497.02Q620.53 421.55, 696 466.09Q737.7 435.79, 768 477.49Q786.69 424.18, 840 442.87Q886.18 417.05, 912 463.23Q961.5 440.73, 984 490.23Q1017.98 404.21, 1104 438.19Q1154.71 416.9, 1176 467.62Q1229.24 448.87, 1248 502.11Q1289.06 471.17, 1320 512.22Q1357.14 429.37, 1440 466.51Q1517.61 424.12, 1560 501.73z" fill="rgba(122, 210, 202, 1)"></path>
        <path d="M1464 545L0 545 L0 516.84Q56.07 500.91, 72 556.99Q94.21 507.2, 144 529.42Q198.97 464.39, 264 519.36Q289.24 472.6, 336 497.84Q390.21 480.05, 408 534.27Q450.03 504.3, 480 546.32Q504.58 498.9, 552 523.48Q609.26 508.75, 624 566.01Q625 495.01, 696 496.01Q741.52 469.53, 768 515.06Q853.64 480.7, 888 566.34Q939.24 497.58, 1008 548.81Q1047.79 468.6, 1128 508.38Q1155.54 463.92, 1200 491.46Q1254.39 473.85, 1272 528.24Q1345.34 481.58, 1392 554.91Q1397.84 488.75, 1464 494.58z" fill="rgba(255, 255, 255, 1)"></path>
    </g>
    <defs>
        <mask id="SvgjsMask1664">
            <rect width="1440" height="545" fill="#ffffff"></rect>
        </mask>
    </defs>
</svg>