<svg xmlns="http://www.w3.org/2000/svg" version="1.1" xmlns:xlink="http://www.w3.org/1999/xlink" xmlns:svgjs="http://svgjs.dev/svgjs" width="1440" height="545" preserveAspectRatio="none" viewBox="0 0 1440 545"><g mask="url(&quot;#SvgjsMask1155&quot;)" fill="none"><rect width="1440" height="545" x="0" y="0" fill="rgba(84, 197, 187, 1)"></rect><path d="M1536 545L0 545 L0 387.58Q42.07 357.65, 72 399.73Q92.35 348.08, 144 368.42Q212.66 317.08, 264 385.74Q338.06 339.8, 384 413.85Q415.61 325.46, 504 357.07Q574.71 307.78, 624 378.49Q680.56 363.05, 696 419.6Q702.97 354.57, 768 361.54Q833 306.55, 888 371.55Q935.78 347.33, 960 395.1Q978.19 341.3, 1032 359.49Q1101.71 309.2, 1152 378.91Q1224.14 331.05, 1272 403.19Q1290.38 349.57, 1344 367.96Q1374.26 326.22, 1416 356.47Q1494.43 314.9, 1536 393.34z" fill="rgba(84, 197, 187, 1)"></path><path d="M1512 545L0 545 L0 441.22Q25.4 394.62, 72 420.02Q155.51 383.53, 192 467.04Q246.24 401.28, 312 455.52Q349.11 372.63, 432 409.74Q477.24 382.98, 504 428.22Q582.01 386.23, 624 464.24Q633.73 401.97, 696 411.69Q768.59 364.27, 816 436.86Q882.01 382.87, 936 448.88Q959.88 400.76, 1008 424.64Q1035.81 380.45, 1080 408.26Q1155.9 364.16, 1200 440.07Q1273.67 393.74, 1320 467.41Q1331.46 406.87, 1392 418.33Q1458.64 364.97, 1512 431.61z" fill="rgba(84, 197, 187, 1)"></path><path d="M1512 545L0 545 L0 465.06Q35.55 428.61, 72 464.15Q146.56 418.7, 192 493.26Q238.98 468.24, 264 515.22Q282.29 461.51, 336 479.8Q401.45 425.25, 456 490.7Q502.19 464.88, 528 511.07Q540.16 451.23, 600 463.38Q630.69 422.07, 672 452.77Q747.93 408.7, 792 484.63Q838.74 459.37, 864 506.11Q874.38 444.5, 936 454.88Q980.78 427.66, 1008 472.44Q1074.53 418.97, 1128 485.5Q1149.13 434.63, 1200 455.75Q1288.88 424.63, 1320 513.5Q1373.55 447.05, 1440 500.6Q1470.86 459.46, 1512 490.31z" fill="rgba(122, 210, 202, 1)"></path><path d="M1512 545L0 545 L0 547.36Q40.98 516.34, 72 557.31Q103.39 468.7, 192 500.09Q241.4 477.49, 264 526.89Q317.66 460.55, 384 514.21Q443.63 501.84, 456 561.46Q480.3 513.76, 528 538.06Q547.04 485.1, 600 504.14Q669.96 454.1, 720 524.06Q796.62 480.67, 840 557.29Q866.35 511.63, 912 537.98Q939.78 493.76, 984 521.55Q1009.4 474.95, 1056 500.35Q1146.47 470.82, 1176 561.28Q1188.52 501.79, 1248 514.31Q1276.93 471.24, 1320 500.17Q1408.55 468.72, 1440 557.26Q1469.82 515.08, 1512 544.9z" fill="white"></path></g><defs><mask id="SvgjsMask1155"><rect width="1440" height="545" fill="#ffffff"></rect></mask></defs></svg>