<svg xmlns="http://www.w3.org/2000/svg" version="1.1" xmlns:xlink="http://www.w3.org/1999/xlink" xmlns:svgjs="http://svgjs.dev/svgjs" width="1440" height="545" preserveAspectRatio="none" viewBox="0 0 1440 545"><g mask="url(&quot;#SvgjsMask1150&quot;)" fill="none"><rect width="1440" height="545" x="0" y="0" fill="rgba(84, 197, 187, 1)"></rect><path d="M1488 545L0 545 L0 388.28Q62.3 330.58, 120 392.89Q144.42 345.31, 192 369.73Q222.9 328.63, 264 359.54Q346.19 321.74, 384 403.93Q414.18 362.11, 456 392.29Q505.58 369.88, 528 419.46Q542.16 361.63, 600 375.79Q666.41 322.21, 720 388.62Q741.15 337.77, 792 358.93Q834.65 329.58, 864 372.23Q917.72 353.95, 936 407.67Q946.25 345.92, 1008 356.17Q1050.11 326.28, 1080 368.39Q1138.13 354.51, 1152 412.64Q1182.02 370.65, 1224 400.67Q1241.1 345.76, 1296 362.86Q1337.74 332.61, 1368 374.35Q1445.97 332.32, 1488 410.29z" fill="rgba(84, 197, 187, 1)"></path><path d="M1512 545L0 545 L0 457.24Q32.13 417.38, 72 449.51Q94.44 399.95, 144 422.4Q171.71 378.11, 216 405.82Q301.84 371.66, 336 457.5Q357.94 407.44, 408 429.39Q462.2 363.59, 528 417.79Q587.54 405.33, 600 464.86Q652.12 396.98, 720 449.09Q744.7 401.79, 792 426.5Q822.87 385.37, 864 416.23Q913.86 394.09, 936 443.95Q965 400.95, 1008 429.96Q1059.51 361.47, 1128 412.97Q1204.69 369.66, 1248 446.35Q1293.22 419.58, 1320 464.8Q1330.15 402.96, 1392 413.11Q1465.32 366.43, 1512 439.74z" fill="rgba(84, 197, 187, 1)"></path><path d="M1488 545L0 545 L0 508.17Q35.54 423.71, 120 459.24Q190.95 410.19, 240 481.15Q282.29 451.44, 312 493.72Q336.54 446.26, 384 470.81Q441.85 456.66, 456 514.52Q503.21 441.73, 576 488.93Q620.18 413.11, 696 457.29Q762.07 403.37, 816 469.44Q886.31 419.75, 936 490.06Q982.83 464.89, 1008 511.73Q1022.31 454.04, 1080 468.35Q1149.82 418.17, 1200 487.98Q1218.62 434.6, 1272 453.21Q1319.71 428.92, 1344 476.64Q1397.61 458.25, 1416 511.85Q1445.76 469.62, 1488 499.38z" fill="rgba(122, 210, 202, 1)"></path><path d="M1536 545L0 545 L0 505.7Q81.35 467.05, 120 548.4Q166.34 474.74, 240 521.07Q269.64 478.72, 312 508.36Q389.78 466.14, 432 543.92Q462.73 502.65, 504 533.38Q532.18 489.56, 576 517.74Q604.21 473.95, 648 502.16Q700.13 482.28, 720 534.41Q792.23 486.63, 840 558.86Q871.91 470.77, 960 502.69Q1011.38 482.07, 1032 533.45Q1058.53 487.99, 1104 514.52Q1164.04 502.56, 1176 562.59Q1224.63 491.22, 1296 539.84Q1335.48 459.32, 1416 498.79Q1505.18 467.97, 1536 557.15z" fill="white"></path></g><defs><mask id="SvgjsMask1150"><rect width="1440" height="545" fill="#ffffff"></rect></mask></defs></svg>