<svg xmlns="http://www.w3.org/2000/svg" version="1.1" xmlns:xlink="http://www.w3.org/1999/xlink" xmlns:svgjs="http://svgjs.dev/svgjs" width="1440" height="545" preserveAspectRatio="none" viewBox="0 0 1440 545"><g mask="url(&quot;#SvgjsMask1175&quot;)" fill="none"><rect width="1440" height="545" x="0" y="0" fill="rgba(84, 197, 187, 1)"></rect><path d="M1488 545L0 545 L0 402.86Q29.37 360.23, 72 389.59Q99.99 345.57, 144 373.56Q220.54 330.1, 264 406.63Q291.37 362, 336 389.36Q363.9 345.26, 408 373.17Q436.17 329.34, 480 357.51Q541.73 347.24, 552 408.96Q597.6 334.56, 672 380.16Q737.51 325.67, 792 391.18Q863.38 342.56, 912 413.94Q955.31 337.25, 1032 380.55Q1101.29 329.84, 1152 399.12Q1219.36 346.48, 1272 413.83Q1288.69 358.52, 1344 375.21Q1389.14 348.36, 1416 393.5Q1458.27 363.77, 1488 406.04z" fill="rgba(84, 197, 187, 1)"></path><path d="M1488 545L0 545 L0 408.23Q58.73 346.97, 120 405.7Q194.33 360.03, 240 434.36Q267.22 389.58, 312 416.8Q366.44 399.24, 384 453.67Q437.58 387.25, 504 440.84Q557.03 373.87, 624 426.9Q648.41 379.31, 696 403.73Q754.28 390.01, 768 448.29Q820.59 380.88, 888 433.48Q939.17 364.65, 1008 415.82Q1092.27 380.09, 1128 464.35Q1173.25 389.6, 1248 434.85Q1294.39 361.24, 1368 407.63Q1436.06 355.69, 1488 423.74z" fill="rgba(84, 197, 187, 1)"></path><path d="M1536 545L0 545 L0 488.25Q32.15 448.4, 72 480.55Q142.18 430.73, 192 500.9Q227.88 416.78, 312 452.67Q382.42 403.09, 432 473.51Q499.22 420.73, 552 487.95Q620.22 436.17, 672 504.4Q705.56 417.95, 792 451.51Q835.94 423.45, 864 467.4Q920.02 451.42, 936 507.44Q959.83 459.27, 1008 483.1Q1036.96 440.06, 1080 469.02Q1106.84 423.86, 1152 450.69Q1226.96 405.65, 1272 480.62Q1325.74 462.37, 1344 516.11Q1348.8 448.91, 1416 453.71Q1482.84 400.54, 1536 467.38z" fill="rgba(122, 210, 202, 1)"></path><path d="M1536 545L0 545 L0 509.21Q84.18 473.39, 120 557.57Q139.62 505.19, 192 524.81Q246.74 459.55, 312 514.29Q364.37 446.66, 432 499.03Q489.75 484.78, 504 542.54Q527.7 494.24, 576 517.94Q654.85 476.79, 696 555.63Q707.25 494.88, 768 506.13Q833.1 451.23, 888 516.32Q944.59 500.91, 960 557.51Q1006.34 483.85, 1080 530.18Q1132.14 462.32, 1200 514.46Q1249.48 491.94, 1272 541.43Q1302.24 499.66, 1344 529.9Q1394.37 508.26, 1416 558.63Q1469.03 491.66, 1536 544.69z" fill="white"></path></g><defs><mask id="SvgjsMask1175"><rect width="1440" height="545" fill="#ffffff"></rect></mask></defs></svg>