<svg xmlns="http://www.w3.org/2000/svg" version="1.1" xmlns:xlink="http://www.w3.org/1999/xlink" xmlns:svgjs="http://svgjs.dev/svgjs" width="1440" height="545" preserveAspectRatio="none" viewBox="0 0 1440 545"><g mask="url(&quot;#SvgjsMask1173&quot;)" fill="none"><rect width="1440" height="545" x="0" y="0" fill="rgba(84, 197, 187, 1)"></rect><path d="M1488 545L0 545 L0 419.03Q13.57 360.6, 72 374.17Q119 349.18, 144 396.18Q214.63 346.81, 264 417.44Q306.06 339.5, 384 381.55Q456.25 333.8, 504 406.04Q522.65 352.7, 576 371.35Q644.13 319.49, 696 387.62Q743.71 363.33, 768 411.04Q807.92 330.96, 888 370.88Q918.55 329.43, 960 359.97Q1019.6 347.57, 1032 407.16Q1053.06 356.22, 1104 377.28Q1149.11 350.38, 1176 395.49Q1195.75 343.24, 1248 362.99Q1331.78 326.77, 1368 410.55Q1419.67 342.23, 1488 393.9z" fill="rgba(84, 197, 187, 1)"></path><path d="M1512 545L0 545 L0 429.85Q49.43 359.28, 120 408.71Q205.7 374.41, 240 460.12Q261.64 409.76, 312 431.41Q337.43 384.84, 384 410.27Q460.25 366.51, 504 442.76Q550.69 417.45, 576 464.15Q606.76 422.91, 648 453.67Q701.03 386.7, 768 439.72Q816.13 415.86, 840 463.99Q880 384, 960 424Q1010.22 402.22, 1032 452.43Q1048.24 396.68, 1104 412.92Q1151.25 388.17, 1176 435.42Q1225.59 413, 1248 462.59Q1260.12 402.7, 1320 414.82Q1350.74 373.56, 1392 404.3Q1477.79 370.09, 1512 455.88z" fill="rgba(84, 197, 187, 1)"></path><path d="M1464 545L0 545 L0 491.86Q16.66 436.52, 72 453.19Q118.17 427.36, 144 473.52Q197.93 455.45, 216 509.38Q265.16 438.54, 336 487.7Q385.41 417.11, 456 466.51Q534.18 424.69, 576 502.87Q602.16 457.03, 648 483.19Q667.31 430.5, 720 449.82Q789.09 398.91, 840 468Q911.07 419.07, 960 490.14Q1028.24 438.38, 1080 506.63Q1100.38 455.01, 1152 475.4Q1199.24 402.64, 1272 449.88Q1331.33 437.2, 1344 496.53Q1398.64 431.17, 1464 485.81z" fill="rgba(122, 210, 202, 1)"></path><path d="M1512 545L0 545 L0 538.52Q19.23 485.75, 72 504.97Q155.1 468.07, 192 551.16Q211.91 499.07, 264 518.97Q345.25 480.23, 384 561.48Q434.5 491.98, 504 542.47Q548.63 467.1, 624 511.72Q680.88 496.6, 696 553.48Q742.13 479.61, 816 525.74Q843.85 481.59, 888 509.43Q974.8 476.24, 1008 563.04Q1058.55 493.59, 1128 544.14Q1169.83 465.97, 1248 507.79Q1295.78 483.57, 1320 531.35Q1385.63 476.99, 1440 542.62Q1458.88 489.5, 1512 508.39z" fill="white"></path></g><defs><mask id="SvgjsMask1173"><rect width="1440" height="545" fill="#ffffff"></rect></mask></defs></svg>