<svg xmlns="http://www.w3.org/2000/svg" version="1.1" xmlns:xlink="http://www.w3.org/1999/xlink" xmlns:svgjs="http://svgjs.dev/svgjs" width="1440" height="545" preserveAspectRatio="none" viewBox="0 0 1440 545"><g mask="url(&quot;#SvgjsMask1171&quot;)" fill="none"><rect width="1440" height="545" x="0" y="0" fill="rgba(84, 197, 187, 1)"></rect><path d="M1512 545L0 545 L0 404.96Q41 373.96, 72 414.96Q81.01 351.97, 144 360.97Q188.1 333.07, 216 377.16Q285 326.16, 336 395.16Q407.94 347.1, 456 419.04Q459.61 350.65, 528 354.26Q565.93 320.19, 600 358.12Q690.29 328.41, 720 418.71Q765.39 344.1, 840 389.49Q885.95 315.44, 960 361.38Q1015.9 345.28, 1032 401.18Q1079.15 328.34, 1152 375.49Q1210.51 362, 1224 420.52Q1230.24 354.76, 1296 361.01Q1337.22 330.23, 1368 371.44Q1412.6 344.03, 1440 388.63Q1460.03 336.66, 1512 356.69z" fill="rgba(84, 197, 187, 1)"></path><path d="M1560 545L0 545 L0 419.11Q68.08 367.19, 120 435.28Q140.59 383.87, 192 404.45Q237.71 378.16, 264 423.88Q320.7 408.58, 336 465.28Q387.75 397.03, 456 448.78Q502.47 375.25, 576 421.71Q655.19 380.9, 696 460.1Q750.23 394.33, 816 448.55Q856.81 369.36, 936 410.16Q980.48 382.64, 1008 427.12Q1086.44 385.56, 1128 464.01Q1157.86 373.87, 1248 403.73Q1294.13 377.87, 1320 424Q1392.97 376.98, 1440 449.95Q1494.24 384.19, 1560 438.42z" fill="rgba(84, 197, 187, 1)"></path><path d="M1512 545L0 545 L0 456.13Q36.69 420.82, 72 457.51Q124.32 437.83, 144 490.15Q170.03 444.18, 216 470.21Q293.12 427.32, 336 504.44Q388.81 437.25, 456 490.06Q496.42 410.48, 576 450.89Q625.63 428.52, 648 478.15Q692.34 450.49, 720 494.82Q759.33 414.15, 840 453.48Q915.39 408.88, 960 484.27Q1025.59 429.86, 1080 495.44Q1128.84 424.27, 1200 473.11Q1252.69 453.81, 1272 506.5Q1320.47 434.97, 1392 483.44Q1444.31 415.75, 1512 468.06z" fill="rgba(122, 210, 202, 1)"></path><path d="M1488 545L0 545 L0 557.13Q31.1 468.23, 120 499.32Q186.34 445.66, 240 512.01Q295.87 495.88, 312 551.75Q321.75 489.5, 384 499.24Q452.29 447.53, 504 515.82Q574.27 466.09, 624 536.36Q689.64 482, 744 547.64Q786.66 518.3, 816 560.95Q838.51 511.47, 888 533.98Q929.65 503.63, 960 545.28Q1003.96 517.24, 1032 561.19Q1054.1 511.29, 1104 533.38Q1170.92 480.3, 1224 547.22Q1270.47 473.69, 1344 520.16Q1399.11 503.27, 1416 558.38Q1425.05 495.42, 1488 504.47z" fill="white"></path></g><defs><mask id="SvgjsMask1171"><rect width="1440" height="545" fill="#ffffff"></rect></mask></defs></svg>