<svg xmlns="http://www.w3.org/2000/svg" version="1.1" xmlns:xlink="http://www.w3.org/1999/xlink" xmlns:svgjs="http://svgjs.dev/svgjs" width="1440" height="545" preserveAspectRatio="none" viewBox="0 0 1440 545"><g mask="url(&quot;#SvgjsMask1145&quot;)" fill="none"><rect width="1440" height="545" x="0" y="0" fill="rgba(84, 197, 187, 1)"></rect><path d="M1512 545L0 545 L0 388.55Q37.04 353.59, 72 390.62Q114.59 361.21, 144 403.79Q190.28 330.07, 264 376.35Q307.31 347.66, 336 390.97Q379.33 314.3, 456 357.63Q546.98 328.61, 576 419.58Q589.41 360.99, 648 374.39Q725.04 331.43, 768 408.47Q795.05 363.52, 840 390.57Q890.52 369.09, 912 419.6Q940.57 376.18, 984 404.75Q994.82 343.57, 1056 354.39Q1130.41 308.8, 1176 383.21Q1243.34 330.55, 1296 397.89Q1338.41 368.3, 1368 410.71Q1382.2 352.91, 1440 367.12Q1487.94 343.06, 1512 391.01z" fill="rgba(84, 197, 187, 1)"></path><path d="M1560 545L0 545 L0 439.79Q67.26 387.06, 120 454.32Q161.5 375.82, 240 417.33Q293.68 351.01, 360 404.69Q445.52 370.21, 480 455.73Q507.77 411.5, 552 439.28Q602.63 369.9, 672 420.53Q753.06 381.58, 792 462.64Q824.11 374.75, 912 406.85Q963.75 386.6, 984 438.34Q1035.58 369.92, 1104 421.5Q1178.85 376.35, 1224 451.2Q1266.52 421.72, 1296 464.23Q1316.51 412.74, 1368 433.24Q1390.36 383.6, 1440 405.96Q1529.53 375.49, 1560 465.01z" fill="rgba(84, 197, 187, 1)"></path><path d="M1488 545L0 545 L0 502.07Q32.31 462.38, 72 494.69Q116.96 467.65, 144 512.62Q153.16 449.78, 216 458.94Q260.16 431.1, 288 475.25Q340.02 455.27, 360 507.3Q409.23 436.53, 480 485.77Q533.75 419.51, 600 473.26Q625.94 427.2, 672 453.14Q730.75 439.88, 744 498.63Q809.86 444.49, 864 510.35Q910.23 436.58, 984 482.8Q1050.43 429.24, 1104 495.67Q1122.66 442.34, 1176 461Q1246.76 411.76, 1296 482.53Q1348.89 463.42, 1368 516.31Q1397.84 426.15, 1488 455.99z" fill="rgba(122, 210, 202, 1)"></path><path d="M1488 545L0 545 L0 535.11Q37.88 501, 72 538.88Q119.27 514.15, 144 561.43Q178.62 476.04, 264 510.66Q318.23 444.89, 384 499.13Q456.69 451.82, 504 524.51Q577.57 478.08, 624 551.65Q657.89 465.54, 744 499.44Q824.63 460.08, 864 540.71Q908.81 513.52, 936 558.32Q980.84 483.16, 1056 528.01Q1103.28 455.28, 1176 502.56Q1254.4 460.97, 1296 539.37Q1348.82 472.19, 1416 525.01Q1441.8 478.81, 1488 504.6z" fill="white"></path></g><defs><mask id="SvgjsMask1145"><rect width="1440" height="545" fill="#ffffff"></rect></mask></defs></svg>