<svg xmlns="http://www.w3.org/2000/svg" version="1.1" xmlns:xlink="http://www.w3.org/1999/xlink" xmlns:svgjs="http://svgjs.dev/svgjs" width="1440" height="545" preserveAspectRatio="none" viewBox="0 0 1440 545"><g mask="url(&quot;#SvgjsMask1169&quot;)" fill="none"><rect width="1440" height="545" x="0" y="0" fill="rgba(84, 197, 187, 1)"></rect><path d="M1560 545L0 545 L0 395.59Q69.54 345.13, 120 414.66Q128.19 350.85, 192 359.04Q247.03 342.07, 264 397.1Q307.93 369.03, 336 412.96Q352.75 357.71, 408 374.46Q454.02 348.48, 480 394.49Q552.62 347.11, 600 419.73Q632.14 331.88, 720 364.02Q768.02 340.04, 792 388.06Q836.41 360.48, 864 404.89Q884.13 353.01, 936 373.14Q979.61 344.75, 1008 388.36Q1052.85 313.21, 1128 358.06Q1184.96 343.02, 1200 399.99Q1268.24 348.23, 1320 416.46Q1352.75 329.21, 1440 361.96Q1512.71 314.67, 1560 387.38z" fill="rgba(84, 197, 187, 1)"></path><path d="M1512 545L0 545 L0 404.74Q66.35 399.09, 72 465.43Q92.34 413.77, 144 434.11Q187.91 406.02, 216 449.93Q228.99 390.92, 288 403.91Q331.61 375.52, 360 419.14Q441.92 381.06, 480 462.98Q502.88 413.87, 552 436.75Q574.15 386.9, 624 409.06Q704.04 369.1, 744 449.14Q772.56 405.69, 816 434.25Q890.18 388.43, 936 462.61Q964.72 419.33, 1008 448.05Q1028.75 396.81, 1080 417.56Q1133.45 351.01, 1200 404.47Q1279.12 363.59, 1320 442.7Q1389.71 392.41, 1440 462.12Q1460.31 410.43, 1512 430.74z" fill="rgba(84, 197, 187, 1)"></path><path d="M1536 545L0 545 L0 460.99Q76.04 417.03, 120 493.07Q172.37 425.44, 240 477.81Q315.25 433.06, 360 508.31Q367.35 443.66, 432 451.01Q501.4 400.41, 552 469.81Q604.42 450.23, 624 502.65Q653.82 460.46, 696 490.28Q721.42 443.69, 768 469.11Q795.97 425.08, 840 453.05Q917.77 410.83, 960 488.6Q1012.39 420.99, 1080 473.38Q1156.15 429.53, 1200 505.69Q1211.72 445.41, 1272 457.13Q1314.15 427.28, 1344 469.44Q1394.24 447.69, 1416 497.93Q1484.38 446.3, 1536 514.68z" fill="rgba(122, 210, 202, 1)"></path><path d="M1488 545L0 545 L0 543.71Q36.46 508.17, 72 544.63Q115.43 516.06, 144 559.49Q188.65 484.14, 264 528.79Q289.33 482.12, 336 507.44Q423.66 475.1, 456 562.76Q501.14 487.9, 576 533.05Q644.34 481.39, 696 549.73Q715.1 496.83, 768 515.93Q822.83 450.75, 888 505.58Q939.89 485.47, 960 537.36Q1027.6 484.96, 1080 552.56Q1096.68 497.24, 1152 513.92Q1218.99 460.91, 1272 527.91Q1324.28 508.19, 1344 560.47Q1370.63 515.1, 1416 541.72Q1445.28 499, 1488 528.28z" fill="white"></path></g><defs><mask id="SvgjsMask1169"><rect width="1440" height="545" fill="#ffffff"></rect></mask></defs></svg>