<svg xmlns="http://www.w3.org/2000/svg" version="1.1" xmlns:xlink="http://www.w3.org/1999/xlink" xmlns:svgjs="http://svgjs.dev/svgjs" width="1440" height="545" preserveAspectRatio="none" viewBox="0 0 1440 545"><g mask="url(&quot;#SvgjsMask1165&quot;)" fill="none"><rect width="1440" height="545" x="0" y="0" fill="rgba(84, 197, 187, 1)"></rect><path d="M1512 545L0 545 L0 357.55Q74.17 311.72, 120 385.89Q170.16 364.05, 192 414.21Q198.79 349, 264 355.79Q333.91 305.7, 384 375.6Q441.61 361.21, 456 418.81Q488.9 331.71, 576 364.6Q653.1 321.7, 696 398.8Q750.53 333.33, 816 387.85Q870.55 322.4, 936 376.95Q985.36 306.31, 1056 355.66Q1134.6 314.26, 1176 392.86Q1229.62 326.48, 1296 380.1Q1324.63 336.73, 1368 365.36Q1426.89 352.25, 1440 411.15Q1465.44 364.59, 1512 390.03z" fill="rgba(84, 197, 187, 1)"></path><path d="M1464 545L0 545 L0 440.75Q51.19 371.94, 120 423.12Q171.72 354.84, 240 406.56Q315.05 361.61, 360 436.65Q430.93 387.58, 480 458.51Q520.93 379.44, 600 420.36Q665.88 366.24, 720 432.12Q785.76 377.88, 840 443.64Q911.17 394.81, 960 465.98Q996.05 382.03, 1080 418.08Q1130.99 397.07, 1152 448.06Q1204.59 380.64, 1272 433.23Q1318.76 360, 1392 406.76Q1454.08 396.84, 1464 458.91z" fill="rgba(84, 197, 187, 1)"></path><path d="M1536 545L0 545 L0 472.5Q51.11 403.61, 120 454.71Q176.02 438.73, 192 494.74Q245.35 428.09, 312 481.44Q333.47 430.91, 384 452.38Q427.03 423.41, 456 466.45Q507.68 446.13, 528 497.8Q578.23 428.02, 648 478.25Q702.23 412.48, 768 466.7Q826.9 453.6, 840 512.5Q887.74 440.24, 960 487.98Q990.96 446.94, 1032 477.9Q1104.8 430.7, 1152 503.5Q1193.62 473.12, 1224 514.73Q1266.16 436.89, 1344 479.06Q1391.92 454.98, 1416 502.9Q1469.33 436.23, 1536 489.56z" fill="rgba(122, 210, 202, 1)"></path><path d="M1464 545L0 545 L0 540.17Q58.55 478.72, 120 537.28Q168.67 465.95, 240 514.62Q323.15 477.77, 360 560.93Q391.72 472.64, 480 504.36Q523.03 475.39, 552 518.43Q631.36 477.78, 672 557.14Q704.18 469.32, 792 501.49Q835.73 473.22, 864 516.94Q944.76 477.71, 984 558.47Q1011.02 513.5, 1056 540.52Q1076.56 489.08, 1128 509.63Q1170.86 480.49, 1200 523.34Q1244.52 495.86, 1272 540.38Q1315.6 511.98, 1344 555.58Q1384 475.58, 1464 515.57z" fill="white"></path></g><defs><mask id="SvgjsMask1165"><rect width="1440" height="545" fill="#ffffff"></rect></mask></defs></svg>