<svg xmlns="http://www.w3.org/2000/svg" version="1.1" xmlns:xlink="http://www.w3.org/1999/xlink" xmlns:svgjs="http://svgjs.dev/svgjs" width="1440" height="545" preserveAspectRatio="none" viewBox="0 0 1440 545"><g mask="url(&quot;#SvgjsMask1167&quot;)" fill="none"><rect width="1440" height="545" x="0" y="0" fill="rgba(84, 197, 187, 1)"></rect><path d="M1512 545L0 545 L0 359.49Q49.84 337.33, 72 387.17Q140.92 336.09, 192 405Q227.34 320.34, 312 355.68Q359.81 331.5, 384 379.31Q436.6 359.91, 456 412.51Q484.75 369.26, 528 398.01Q553.61 351.62, 600 377.23Q629.74 334.97, 672 364.7Q759.31 332.01, 792 419.33Q836.88 344.21, 912 389.09Q953.04 358.13, 984 399.17Q998.31 341.48, 1056 355.79Q1130.13 309.92, 1176 384.04Q1205.08 341.12, 1248 370.2Q1302.01 304.21, 1368 358.22Q1428.67 346.89, 1440 407.56Q1467.92 363.49, 1512 391.41z" fill="rgba(84, 197, 187, 1)"></path><path d="M1536 545L0 545 L0 403.16Q36.51 367.68, 72 404.19Q147.77 359.96, 192 435.72Q237.32 409.05, 264 454.37Q278.59 396.96, 336 411.55Q403.03 358.58, 456 425.61Q503.57 401.19, 528 448.76Q594.48 395.24, 648 461.72Q671.02 412.74, 720 435.76Q774.62 370.38, 840 424.99Q897.77 410.76, 912 468.54Q958.33 394.87, 1032 441.19Q1056.11 393.3, 1104 417.41Q1184.75 378.16, 1224 458.91Q1233.03 395.94, 1296 404.96Q1361.01 349.97, 1416 414.97Q1485.6 364.57, 1536 434.17z" fill="rgba(84, 197, 187, 1)"></path><path d="M1464 545L0 545 L0 475.51Q78.95 434.46, 120 513.42Q148.85 422.27, 240 451.12Q306.01 397.13, 360 463.15Q405.43 436.57, 432 482Q480.72 458.72, 504 507.43Q520 451.44, 576 467.44Q649.75 421.19, 696 494.95Q737.81 464.76, 768 506.58Q788.03 454.61, 840 474.64Q885.27 447.91, 912 493.19Q954.82 416, 1032 458.82Q1078.3 433.12, 1104 479.42Q1156.54 459.96, 1176 512.49Q1200.51 465, 1248 489.5Q1273.87 443.37, 1320 469.23Q1349.54 426.77, 1392 456.31Q1444.65 436.96, 1464 489.61z" fill="rgba(122, 210, 202, 1)"></path><path d="M1488 545L0 545 L0 526.68Q77.53 484.21, 120 561.74Q129.89 499.63, 192 509.53Q234.81 480.34, 264 523.14Q314.5 501.64, 336 552.15Q350.58 494.73, 408 509.3Q480.62 461.92, 528 534.55Q594.24 480.79, 648 547.03Q669.14 496.17, 720 517.32Q787.98 465.3, 840 533.27Q908.79 482.06, 960 550.85Q981.43 500.28, 1032 521.71Q1076.09 493.8, 1104 537.88Q1174.45 488.33, 1224 558.78Q1258.65 473.43, 1344 508.08Q1387.12 479.2, 1416 522.32Q1472.54 506.86, 1488 563.4z" fill="white"></path></g><defs><mask id="SvgjsMask1167"><rect width="1440" height="545" fill="#ffffff"></rect></mask></defs></svg>