<svg xmlns="http://www.w3.org/2000/svg" version="1.1" xmlns:xlink="http://www.w3.org/1999/xlink" xmlns:svgjs="http://svgjs.dev/svgjs" width="1440" height="545" preserveAspectRatio="none" viewBox="0 0 1440 545"><g mask="url(&quot;#SvgjsMask1160&quot;)" fill="none"><rect width="1440" height="545" x="0" y="0" fill="rgba(84, 197, 187, 1)"></rect><path d="M1488 545L0 545 L0 390.99Q30.07 349.06, 72 379.13Q97.14 332.27, 144 357.42Q201.01 342.44, 216 399.45Q267.44 330.89, 336 382.34Q410.59 336.93, 456 411.52Q509.96 345.48, 576 399.43Q625.29 328.72, 696 378Q725.58 335.58, 768 365.16Q855.53 332.69, 888 420.22Q913.17 373.39, 960 398.57Q1008.99 327.56, 1080 376.54Q1134.83 359.37, 1152 414.19Q1179.83 370.01, 1224 397.84Q1242 343.84, 1296 361.84Q1337.97 331.81, 1368 373.78Q1443.14 328.92, 1488 404.06z" fill="rgba(84, 197, 187, 1)"></path><path d="M1464 545L0 545 L0 418.85Q41.9 388.75, 72 430.65Q137.99 376.64, 192 442.63Q234.17 412.8, 264 454.97Q307.72 378.69, 384 422.41Q411.44 377.85, 456 405.29Q506.81 384.1, 528 434.91Q570.34 405.25, 600 447.6Q619.43 395.04, 672 414.47Q719.21 389.69, 744 436.9Q785.01 405.91, 816 446.93Q885.51 396.44, 936 465.96Q941.07 399.02, 1008 404.09Q1053.46 377.55, 1080 423.01Q1123.92 394.94, 1152 438.86Q1195.62 362.48, 1272 406.1Q1331.51 393.61, 1344 453.11Q1386.68 375.8, 1464 418.48z" fill="rgba(84, 197, 187, 1)"></path><path d="M1536 545L0 545 L0 496.15Q14.08 438.23, 72 452.31Q119.42 427.73, 144 475.14Q222.38 433.52, 264 511.9Q287.94 463.84, 336 487.78Q387.38 419.16, 456 470.55Q486.67 429.22, 528 459.88Q604.27 416.15, 648 492.42Q699.33 423.75, 768 475.08Q848.42 435.5, 888 515.93Q896.26 452.19, 960 460.46Q1029.51 409.97, 1080 479.48Q1124.3 451.78, 1152 496.08Q1166.96 439.04, 1224 454Q1266.9 424.9, 1296 467.81Q1365.65 417.46, 1416 487.11Q1458.55 409.65, 1536 452.2z" fill="rgba(122, 210, 202, 1)"></path><path d="M1560 545L0 545 L0 515.02Q43.97 486.99, 72 530.95Q146.03 484.99, 192 559.02Q229.42 476.44, 312 513.86Q357.64 487.5, 384 533.14Q428.5 505.64, 456 550.15Q470.05 492.2, 528 506.26Q597.88 456.13, 648 526.01Q719.48 477.49, 768 548.97Q810.36 471.33, 888 513.69Q932.81 486.5, 960 531.31Q1006.08 505.38, 1032 551.46Q1074.14 473.61, 1152 515.75Q1181.49 473.25, 1224 502.74Q1285.7 492.44, 1296 554.15Q1312.09 498.24, 1368 514.33Q1398.95 473.29, 1440 504.24Q1529.09 473.33, 1560 562.41z" fill="white"></path></g><defs><mask id="SvgjsMask1160"><rect width="1440" height="545" fill="#ffffff"></rect></mask></defs></svg>