<svg width="24" height="32" viewBox="0 0 24 32" fill="none" xmlns="http://www.w3.org/2000/svg">
<path d="M21.4125 9.41249C22.1937 8.63124 22.1937 7.36249 21.4125 6.58124C20.6312 5.79999 19.3625 5.79999 18.5812 6.58124L12 13.1687L5.41249 6.58749C4.63124 5.80624 3.36249 5.80624 2.58124 6.58749C1.79999 7.36874 1.79999 8.63749 2.58124 9.41874L9.16874 16L2.58749 22.5875C1.80624 23.3687 1.80624 24.6375 2.58749 25.4187C3.36874 26.2 4.63749 26.2 5.41874 25.4187L12 18.8312L18.5875 25.4125C19.3687 26.1937 20.6375 26.1937 21.4187 25.4125C22.2 24.6312 22.2 23.3625 21.4187 22.5812L14.8312 16L21.4125 9.41249Z" fill="#545150"/>
</svg>
