<svg width="18" height="20" viewBox="0 0 18 20" fill="none" xmlns="http://www.w3.org/2000/svg">
<g clip-path="url(#clip0_33_58)">
<path d="M8.78442 5.50781C6.29139 5.50781 4.2805 7.51172 4.2805 9.99609C4.2805 12.4805 6.29139 14.4844 8.78442 14.4844C11.2774 14.4844 13.2883 12.4805 13.2883 9.99609C13.2883 7.51172 11.2774 5.50781 8.78442 5.50781ZM8.78442 12.9141C7.17336 12.9141 5.85628 11.6055 5.85628 9.99609C5.85628 8.38672 7.16944 7.07812 8.78442 7.07812C10.3994 7.07812 11.7126 8.38672 11.7126 9.99609C11.7126 11.6055 10.3955 12.9141 8.78442 12.9141ZM14.5231 5.32422C14.5231 5.90625 14.0527 6.37109 13.4726 6.37109C12.8885 6.37109 12.422 5.90234 12.422 5.32422C12.422 4.74609 12.8924 4.27734 13.4726 4.27734C14.0527 4.27734 14.5231 4.74609 14.5231 5.32422ZM17.5061 6.38672C17.4395 4.98438 17.118 3.74219 16.0871 2.71875C15.0601 1.69531 13.8136 1.375 12.4064 1.30469C10.956 1.22266 6.6089 1.22266 5.15855 1.30469C3.75524 1.37109 2.50872 1.69141 1.4778 2.71484C0.446874 3.73828 0.129366 4.98047 0.0588081 6.38281C-0.023509 7.82812 -0.023509 12.1602 0.0588081 13.6055C0.125446 15.0078 0.446874 16.25 1.4778 17.2734C2.50872 18.2969 3.75132 18.6172 5.15855 18.6875C6.6089 18.7695 10.956 18.7695 12.4064 18.6875C13.8136 18.6211 15.0601 18.3008 16.0871 17.2734C17.1141 16.25 17.4356 15.0078 17.5061 13.6055C17.5884 12.1602 17.5884 7.83203 17.5061 6.38672ZM15.6324 15.1562C15.3267 15.9219 14.7348 16.5117 13.9626 16.8203C12.8062 17.2773 10.0623 17.1719 8.78442 17.1719C7.50654 17.1719 4.75872 17.2734 3.60628 16.8203C2.83799 16.5156 2.24609 15.9258 1.93642 15.1562C1.4778 14.0039 1.58363 11.2695 1.58363 9.99609C1.58363 8.72266 1.48172 5.98438 1.93642 4.83594C2.24217 4.07031 2.83407 3.48047 3.60628 3.17187C4.76264 2.71484 7.50654 2.82031 8.78442 2.82031C10.0623 2.82031 12.8101 2.71875 13.9626 3.17187C14.7308 3.47656 15.3227 4.06641 15.6324 4.83594C16.091 5.98828 15.9852 8.72266 15.9852 9.99609C15.9852 11.2695 16.091 14.0078 15.6324 15.1562Z" fill="white"/>
</g>
<defs>
<clipPath id="clip0_33_58">
<rect width="17.561" height="20" fill="white"/>
</clipPath>
</defs>
</svg>
