<svg className="mx-auto" xmlns="http://www.w3.org/2000/svg" width="64" height="64"
    viewBox="0 0 64 64" fill="none">
    <circle cx="32" cy="32" r="32" fill="url(#paint0_linear_103_4)" />
    <path
        d="M32 56C38.3652 56 44.4697 53.4714 48.9706 48.9706C53.4714 44.4697 56 38.3652 56 32C56 25.6348 53.4714 19.5303 48.9706 15.0294C44.4697 10.5286 38.3652 8 32 8C25.6348 8 19.5303 10.5286 15.0294 15.0294C10.5286 19.5303 8 25.6348 8 32C8 38.3652 10.5286 44.4697 15.0294 48.9706C19.5303 53.4714 25.6348 56 32 56ZM36.7531 38.4781L23.225 43.6813C21.4062 44.3844 19.6156 42.5938 20.3187 40.775L25.5219 27.2469C25.8312 26.45 26.45 25.8312 27.2469 25.5219L40.775 20.3187C42.5938 19.6156 44.3844 21.4062 43.6813 23.225L38.4781 36.7531C38.1781 37.55 37.55 38.1688 36.7531 38.4781ZM35 32C35 31.2044 34.6839 30.4413 34.1213 29.8787C33.5587 29.3161 32.7956 29 32 29C31.2044 29 30.4413 29.3161 29.8787 29.8787C29.3161 30.4413 29 31.2044 29 32C29 32.7956 29.3161 33.5587 29.8787 34.1213C30.4413 34.6839 31.2044 35 32 35C32.7956 35 33.5587 34.6839 34.1213 34.1213C34.6839 33.5587 35 32.7956 35 32Z"
        fill="white" />
    <defs>
        <linearGradient id="paint0_linear_103_4" x1="0" y1="32" x2="64" y2="32"
            gradientUnits="userSpaceOnUse">
            <stop stop-color="#54C5BB" />
            <stop offset="1" stop-color="#7AD2CA" />
        </linearGradient>
    </defs>
</svg>