<svg
    className="mx-auto"
    xmlns="http://www.w3.org/2000/svg"
    width="64"
    height="64"
    viewBox="0 0 64 64"
    fill="none"
>
    <circle cx="32" cy="32" r="32" fill="url(#paint0_linear_103_3)" />
    <g clip-path="url(#clip0_103_3)">
        <path
            d="M34.4083 12.5C33.9667 11.5833 33.0333 11 32.0083 11C30.9833 11 30.0583 11.5833 29.6083 12.5L24.25 23.525L12.2833 25.2917C11.2833 25.4417 10.45 26.1417 10.1417 27.1C9.83333 28.0583 10.0833 29.1167 10.8 29.825L19.4833 38.4167L17.4333 50.5583C17.2667 51.5583 17.6833 52.575 18.5083 53.1667C19.3333 53.7583 20.425 53.8333 21.325 53.3583L32.0167 47.65L42.7083 53.3583C43.6083 53.8333 44.7 53.7667 45.525 53.1667C46.35 52.5667 46.7667 51.5583 46.6 50.5583L44.5417 38.4167L53.225 29.825C53.9417 29.1167 54.2 28.0583 53.8833 27.1C53.5667 26.1417 52.7417 25.4417 51.7417 25.2917L39.7667 23.525L34.4083 12.5Z"
            fill="white"
        />
    </g>
    <defs>
        <linearGradient
            id="paint0_linear_103_3"
            x1="0"
            y1="32"
            x2="64"
            y2="32"
            gradientUnits="userSpaceOnUse"
        >
            <stop stop-color="#7AD2CA" />
            <stop offset="1" stop-color="#54C5BB" />
        </linearGradient>
        <clipPath id="clip0_103_3">
            <rect
                width="48"
                height="42.6667"
                fill="white"
                transform="translate(8 11)"
            />
        </clipPath>
    </defs>
</svg>