<svg
    className="mx-auto"
    xmlns="http://www.w3.org/2000/svg"
    width="64"
    height="64"
    viewBox="0 0 64 64"
    fill="none"
>
    <circle cx="32" cy="32" r="32" fill="url(#paint0_linear_103_2)" />
    <g clip-path="url(#clip0_103_2)">
        <path
            d="M32 13.6669C25.2667 13.6669 19.875 16.7338 15.95 20.3841C12.05 24.001 9.44166 28.3347 8.20833 31.3099C7.93333 31.9683 7.93333 32.7017 8.20833 33.3601C9.44166 36.3353 12.05 40.669 15.95 44.2859C19.875 47.9362 25.2667 51.0031 32 51.0031C38.7333 51.0031 44.125 47.9362 48.05 44.2859C51.95 40.6606 54.5583 36.3353 55.8 33.3601C56.075 32.7017 56.075 31.9683 55.8 31.3099C54.5583 28.3347 51.95 24.001 48.05 20.3841C44.125 16.7338 38.7333 13.6669 32 13.6669ZM20 32.335C20 29.1521 21.2643 26.0997 23.5147 23.8491C25.7651 21.5984 28.8174 20.3341 32 20.3341C35.1826 20.3341 38.2348 21.5984 40.4853 23.8491C42.7357 26.0997 44 29.1521 44 32.335C44 35.5178 42.7357 38.5703 40.4853 40.8209C38.2348 43.0716 35.1826 44.3359 32 44.3359C28.8174 44.3359 25.7651 43.0716 23.5147 40.8209C21.2643 38.5703 20 35.5178 20 32.335ZM32 27.0012C32 29.9431 29.6083 32.335 26.6667 32.335C26.075 32.335 25.5083 32.235 24.975 32.06C24.5167 31.91 23.9833 32.1933 24 32.6767C24.025 33.2517 24.1083 33.8268 24.2667 34.4018C25.4083 38.6688 29.8 41.2024 34.0667 40.0606C38.3333 38.9188 40.8667 34.5268 39.725 30.2598C38.8 26.8012 35.7417 24.476 32.3417 24.3344C31.8583 24.3177 31.575 24.8427 31.725 25.3094C31.9 25.8428 32 26.4095 32 27.0012Z"
            fill="white"
        />
    </g>
    <defs>
        <linearGradient
            id="paint0_linear_103_2"
            x1="64"
            y1="32"
            x2="0"
            y2="32"
            gradientUnits="userSpaceOnUse"
        >
            <stop stop-color="#7AD2CA" />
            <stop offset="1" stop-color="#54C5BB" />
        </linearGradient>
        <clipPath id="clip0_103_2">
            <rect
                width="48"
                height="42.67"
                fill="white"
                transform="translate(8 11)"
            />
        </clipPath>
    </defs>
</svg>